<svg width="54" height="54" viewBox="0 0 54 54" fill="none" xmlns="http://www.w3.org/2000/svg">
<path d="M0 0V54H54V0H0ZM52.6421 52.6524H1.35788V1.34759H52.6179V52.6524H52.6421Z" fill="white"/>
<path d="M16.8038 32.2942H15.5187L10.4751 43.3396H11.93L13.2151 40.4519H19.0588L20.344 43.3396H21.8231L16.8038 32.2942ZM13.7728 39.2969L16.1733 33.9306L18.5739 39.2969H13.7728Z" fill="white"/>
<path d="M20.829 10.7327V21.8022H19.7136L12.9727 13.2594V21.8022H11.5906V10.7327H12.706L12.7545 10.7808L19.4711 19.2754V10.7327H20.829Z" fill="white"/>
<path d="M42.599 32.435L32.6716 42.2871L33.6489 43.257L43.5763 33.4049L42.599 32.435Z" fill="white"/>
<path d="M41.3426 10.6604V18.2406C41.3426 20.3823 39.5725 22.139 37.3902 22.1149C35.2322 22.1149 33.4863 20.3583 33.4863 18.2165V18.0962H34.8685V18.2165C34.8685 19.6123 36.0081 20.7433 37.4145 20.7433C38.8209 20.7433 39.9605 19.6123 39.9605 18.2165V11.9358H35.8384V10.6604H41.3426Z" fill="white"/>
</svg>
